HIERARCHY
ROOT SpineBase
{
  OFFSET 0.000000 0.000000 0.000000
  CHANNELS 6 Xposition Yposition Zposition Zrotation Xrotation Yrotation
  JOINT SpineMid
  {
    OFFSET 0.000000 29.027858 0.000000
    CHANNELS 3 Zrotation Xrotation Yrotation
    JOINT SpineShoulder
    {
      OFFSET 0.239792 21.643354 -0.791200
      CHANNELS 3 Zrotation Xrotation Yrotation
      JOINT Neck
      {
        OFFSET 0.112446 7.182913 -0.599692
        CHANNELS 3 Zrotation Xrotation Yrotation
        JOINT Head
        {
          OFFSET 1.983409 11.898091 0.577819
          CHANNELS 3 Zrotation Xrotation Yrotation
          End Site
          {
            OFFSET 0 0 0
          }
        }
      }
      JOINT ShoulderLeft
      {
        OFFSET -13.256940 -1.377059 -11.045662
        CHANNELS 3 Zrotation Xrotation Yrotation
        JOINT ElbowLeft
        {
          OFFSET -5.712058 -23.583986 -3.945006
          CHANNELS 3 Zrotation Xrotation Yrotation
          JOINT WristLeft
          {
            OFFSET 1.914207 -24.291618 -5.739744
            CHANNELS 3 Zrotation Xrotation Yrotation
            JOINT HandLeft
            {
              OFFSET 0.677253 -9.318639 -1.188948
              CHANNELS 3 Zrotation Xrotation Yrotation
              JOINT HandTipLeft
              {
                OFFSET 2.068065 -7.009135 -1.595537
                CHANNELS 3 Zrotation Xrotation Yrotation
                End Site
                {
                  OFFSET 0 0 0
                }
              }
              JOINT ThumbLeft
              {
                OFFSET 2.867417 1.854914 3.179348
                CHANNELS 3 Zrotation Xrotation Yrotation
                End Site
                {
                  OFFSET 0 0 0
                }
              }
            }
          }
        }
      }
      JOINT ShoulderRight
      {
        OFFSET 15.364171 -3.001471 8.210047
        CHANNELS 3 Zrotation Xrotation Yrotation
        JOINT ElbowRight
        {
          OFFSET 0.387017 -26.363563 1.962015
          CHANNELS 3 Zrotation Xrotation Yrotation
          JOINT WristRight
          {
            OFFSET -0.309769 -24.939060 -9.161773
            CHANNELS 3 Zrotation Xrotation Yrotation
            JOINT HandRight
            {
              OFFSET -1.499262 -5.975422 -2.155762
              CHANNELS 3 Zrotation Xrotation Yrotation
              JOINT HandTipRight
              {
                OFFSET 0.140389 -6.896021 -1.207348
                CHANNELS 3 Zrotation Xrotation Yrotation
                End Site
                {
                  OFFSET 0 0 0
                }
              }
              JOINT ThumbRight
              {
                OFFSET -2.840700 3.385450 -1.748639
                CHANNELS 3 Zrotation Xrotation Yrotation
                End Site
                {
                  OFFSET 0 0 0
                }
              }
            }
          }
        }
      }
    }
  }
  JOINT HipLeft
  {
    OFFSET -5.247362 2.272497 -6.756985
    CHANNELS 3 Zrotation Xrotation Yrotation
    JOINT KneeLeft
    {
      OFFSET -9.991467 -40.241610 4.225114
      CHANNELS 3 Zrotation Xrotation Yrotation
      JOINT AnkleLeft
      {
        OFFSET -5.620222 -33.713576 9.068711
        CHANNELS 3 Zrotation Xrotation Yrotation
        JOINT FootLeft
        {
          OFFSET 0.674841 -7.431772 -6.865768
          CHANNELS 3 Zrotation Xrotation Yrotation
          End Site
          {
            OFFSET 0 0 0
          }
        }
      }
    }
  }
  JOINT HipRight
  {
    OFFSET 6.277557 0.033597 -0.059681
    CHANNELS 3 Zrotation Xrotation Yrotation
    JOINT KneeRight
    {
      OFFSET -5.143669 -40.981908 9.492231
      CHANNELS 3 Zrotation Xrotation Yrotation
      JOINT AnkleRight
      {
        OFFSET -4.987205 -32.053899 5.999511
        CHANNELS 3 Zrotation Xrotation Yrotation
        JOINT FootRight
        {
          OFFSET 4.548789 -7.391948 -3.494802
          CHANNELS 3 Zrotation Xrotation Yrotation
          End Site
          {
            OFFSET 0 0 0
          }
        }
      }
    }
  }
}
MOTION
Frames: 16
Frame Time: 0.033333
-46.135813 79.667080 305.959304 -0.212160 -0.363572 -32.188687 -0.014125 0.420709 32.188066 -0.000000 0.000000 0.000000 -0.000000 0.000000 0.000000 0.000000 0.000000 0.000000 -0.000000 0.000000 0.000000 -0.000000 0.000000 0.000000 0.504755 -2.564184 -0.240102 -4.749988 -3.020227 -0.440899 0.000000 0.000000 0.000000 0.000000 0.000000 0.000000 0.142908 -0.857639 -0.000885 1.085532 4.020354 -0.534327 5.485140 -3.384488 -1.539874 5.935567 11.447215 -0.907866 0.000000 0.000000 0.000000 0.000000 0.000000 0.000000 -0.014125 0.420709 32.188066 0.057500 -0.981432 0.179175 7.975434 -1.880720 -7.929773 0.000000 0.000000 0.000000 -0.014125 0.420709 32.188066 -0.000000 0.000000 0.000000 0.493952 4.068072 2.210095 0.000000 0.000000 0.000000
-46.059736 79.725103 305.919940 -0.194515 -0.390734 -32.262781 -0.044090 0.434240 32.262285 -0.000000 0.000000 0.000000 -0.000000 0.000000 0.000000 0.000000 0.000000 0.000000 -0.000000 0.000000 0.000000 -0.000000 0.000000 0.000000 0.014155 -2.993761 -0.219795 -3.842144 -1.472153 -0.176251 0.000000 0.000000 0.000000 0.000000 0.000000 0.000000 -0.000000 0.000000 0.000000 1.664808 4.025347 -0.711105 5.558524 -7.113627 -0.514707 2.994098 12.584149 -0.989585 0.000000 0.000000 0.000000 0.000000 0.000000 0.000000 -0.526174 -0.228583 32.258477 0.777192 -0.786792 0.188187 8.541215 -4.043848 -8.641431 0.000000 0.000000 0.000000 -0.044090 0.434240 32.262285 -0.000000 0.000000 0.000000 -0.043473 4.106219 2.507717 0.000000 0.000000 0.000000
-46.014381 79.763994 305.867590 -0.236005 -0.382516 -32.254826 -0.004555 0.449438 32.254056 -0.000000 0.000000 0.000000 0.829884 0.178441 -0.071422 0.000000 0.000000 0.000000 -0.000000 0.000000 0.000000 -0.000000 0.000000 0.000000 -0.474946 -3.021246 -0.172185 -2.934470 -1.201711 -0.272812 0.000000 0.000000 0.000000 0.000000 0.000000 0.000000 0.813317 2.099362 0.076546 0.930975 1.429860 -0.772614 5.437327 -9.666920 0.455765 1.793376 13.913143 -1.564507 0.000000 0.000000 0.000000 0.000000 0.000000 0.000000 -0.004555 0.449438 32.254056 -0.056852 -1.221710 0.187221 8.503930 -7.582284 -8.912168 0.000000 0.000000 0.000000 -0.004555 0.449438 32.254056 -0.000000 0.000000 0.000000 -0.173756 3.617494 2.282226 0.000000 0.000000 0.000000
-45.980877 79.785300 305.731919 -0.368580 -0.355665 -32.072299 0.123480 0.497091 32.070619 -0.000000 0.000000 0.000000 1.139621 0.356562 -0.118510 0.000000 0.000000 0.000000 -0.000000 0.000000 0.000000 -0.000000 0.000000 0.000000 -0.953273 -3.004421 -0.122257 -1.194689 -1.206699 -0.657494 0.000000 0.000000 0.000000 0.000000 0.000000 0.000000 1.223580 4.849659 0.110815 0.229403 -3.096961 -0.667930 4.902858 -11.280327 1.451488 -0.439168 15.197429 -1.768625 0.000000 0.000000 0.000000 0.000000 0.000000 0.000000 0.123480 0.497091 32.070619 -0.123263 -1.375623 0.194036 7.401897 -11.708203 -8.313818 0.000000 0.000000 0.000000 0.123480 0.497091 32.070619 -0.427860 -0.731542 0.030952 -0.751768 4.046108 2.591684 0.000000 0.000000 0.000000
-45.936055 79.796500 305.536681 -0.532145 -0.321156 -31.935544 0.281737 0.554025 31.932691 -0.000000 0.000000 0.000000 1.511542 0.505367 -0.164649 0.000000 0.000000 0.000000 -0.000000 0.000000 0.000000 -0.000000 0.000000 0.000000 -1.082645 -2.290583 -0.050166 -1.223511 -2.554905 -0.918030 0.000000 0.000000 0.000000 0.000000 0.000000 0.000000 1.576324 7.978907 0.125322 -0.704009 -8.943548 -0.533979 3.834493 -12.180406 2.540318 -1.842754 15.991505 -2.203691 0.000000 0.000000 0.000000 0.000000 0.000000 0.000000 0.281737 0.554025 31.932691 -0.149009 -1.580784 0.220537 5.383615 -15.332599 -6.935527 0.000000 0.000000 0.000000 0.281737 0.554025 31.932691 -0.761117 -0.936389 -0.002978 -2.236804 3.411217 3.061774 0.000000 0.000000 0.000000
-45.903103 79.793539 305.269931 -0.764959 -0.271137 -31.747761 0.507865 0.633053 31.743145 -0.857213 -0.075715 -0.070938 2.810272 0.734859 -0.148807 0.000000 0.000000 0.000000 0.857120 0.076768 0.069797 -0.000000 0.000000 0.000000 -0.947938 -1.192158 0.024487 -1.601270 -3.738567 -0.992502 0.000000 0.000000 0.000000 0.000000 0.000000 0.000000 2.638313 11.168776 0.192170 -1.686078 -15.417098 -0.457995 2.750733 -11.767869 3.410707 -5.493931 16.040862 -1.377052 0.000000 0.000000 0.000000 0.000000 0.000000 0.000000 0.507865 0.633053 31.743145 -0.137233 -1.837245 0.265988 1.835332 -17.957560 -4.113323 0.000000 0.000000 0.000000 0.507865 0.633053 31.743145 -1.170872 -1.154663 -0.051123 -2.972845 3.059250 3.357856 0.000000 0.000000 0.000000
-45.829102 79.768226 305.016094 -0.921128 -0.266209 -31.696680 0.643910 0.710450 31.690548 -1.015181 -0.053493 -0.084380 3.296266 0.878556 -0.183554 0.000000 0.000000 0.000000 0.363109 -0.508066 0.326046 -0.142839 0.332625 -0.071813 -0.039685 -0.729110 -0.138814 -1.932157 -4.589504 -1.161244 0.000000 0.000000 0.000000 0.000000 0.000000 0.000000 2.854820 13.879790 0.201955 -2.725856 -21.952414 -0.471571 2.138560 -10.644033 4.096570 -7.931513 15.565489 -0.917702 0.000000 0.000000 0.000000 0.000000 0.000000 0.000000 0.518505 -0.149981 31.797730 0.360646 -1.381600 0.176217 3.199090 -11.485525 -4.572149 0.000000 0.000000 0.000000 1.636950 0.331734 31.936821 -2.291075 -0.466092 -0.346830 -3.441800 2.626538 3.542198 0.000000 0.000000 0.000000
-45.730884 79.720660 304.786265 -1.005753 -0.325612 -31.734773 0.096109 0.115377 31.703356 -0.176655 0.102187 -0.054219 3.377525 1.197710 -0.229710 0.000000 0.000000 0.000000 0.417747 -0.594265 0.370996 -0.398412 0.381992 -0.073386 0.081806 -0.141802 -0.131301 -4.698296 -6.234011 -1.113410 0.000000 0.000000 0.000000 0.000000 0.000000 0.000000 2.611751 15.425012 0.212134 -3.232145 -26.786073 -0.490217 0.998136 -8.567233 4.734404 -9.090623 16.269472 -0.617444 0.000000 0.000000 0.000000 0.000000 0.000000 0.000000 0.558770 -0.173560 31.852732 0.414051 -1.427763 0.178794 0.730646 -13.612860 -2.548619 0.000000 0.000000 0.000000 2.037643 0.419160 32.062426 -3.068982 -0.354393 -0.504277 -3.529641 2.233302 3.600359 0.000000 0.000000 0.000000
-45.634535 79.667345 304.579330 -1.052259 -0.370900 -31.808662 0.054838 0.074754 31.773669 -0.122654 0.052288 -0.053987 3.541349 1.470958 -0.271204 0.000000 0.000000 0.000000 0.529227 -0.862754 0.452847 -0.742010 0.655760 -0.086778 0.111394 -0.035401 -0.157025 -6.454687 -7.758451 -1.361665 0.000000 0.000000 0.000000 0.000000 0.000000 0.000000 2.358201 16.473815 0.233787 -3.445645 -29.971302 -0.520848 -0.545266 -7.270069 5.607882 -5.922402 17.053601 -2.324200 0.000000 0.000000 0.000000 0.000000 0.000000 0.000000 0.490028 -0.201715 31.921761 0.446169 -1.541251 0.182074 1.113714 -11.280311 -2.559941 0.000000 0.000000 0.000000 2.395819 0.385438 32.219655 -3.716159 -0.050030 -0.653571 -3.474152 1.617518 3.473366 0.000000 0.000000 0.000000
-45.510086 79.621564 304.518184 -0.946568 -0.529106 -32.077991 0.178782 0.105026 32.051358 0.057611 -0.074463 -0.026966 3.113555 2.200936 -0.400303 0.000000 0.000000 0.000000 0.263503 -0.602441 0.407713 -1.145051 0.453470 -0.035004 0.380043 0.169550 -0.202928 -8.271144 -9.399980 -1.722265 0.000000 0.000000 0.000000 0.000000 0.000000 0.000000 1.493304 16.257214 0.217622 -2.415083 -29.061653 -0.345451 -1.661460 -10.197680 6.821511 -5.705708 19.252124 -2.730738 0.000000 0.000000 0.000000 0.000000 0.000000 0.000000 0.037332 -0.132536 32.133323 0.522735 -1.758654 0.207061 3.780758 -5.771398 -4.287468 0.000000 0.000000 0.000000 2.455548 0.405412 32.545202 -4.206020 0.343368 -0.784772 -3.004406 0.952817 3.162794 0.000000 0.000000 0.000000
-45.397118 79.587833 304.535011 -0.695248 -0.723342 -32.494248 0.354708 0.157002 32.483865 0.203505 -0.167854 0.007015 2.590994 3.194800 -0.593015 0.000000 0.000000 0.000000 -0.068417 -0.145121 0.289498 -1.507401 0.085720 0.039673 0.475196 0.657652 -0.187158 -10.352303 -11.139435 -2.105999 0.000000 0.000000 0.000000 0.000000 0.000000 0.000000 -0.031654 14.914838 0.210233 -0.710351 -26.653121 -0.039275 -2.839405 -12.738530 7.838978 0.502682 21.827213 -6.237870 0.000000 0.000000 0.000000 0.000000 0.000000 0.000000 -0.515244 -0.138092 32.506764 0.508837 -1.893492 0.193937 10.764058 4.964898 -9.656957 0.000000 0.000000 0.000000 2.217763 0.261304 32.982677 -4.274609 0.883843 -0.851312 -2.807145 -0.076081 2.694765 0.000000 0.000000 0.000000
-45.275737 79.556114 304.664859 -0.334165 -0.996752 -33.129501 0.506076 0.266729 33.140541 0.321719 -0.241188 0.044674 2.279958 4.179526 -0.817517 0.000000 0.000000 0.000000 -0.555902 1.291610 -0.060419 -1.765265 -1.498472 0.277156 0.949474 0.719129 -0.259120 -12.185382 -11.125559 -1.896785 0.000000 0.000000 0.000000 0.000000 0.000000 0.000000 -0.913791 14.989283 0.167070 -0.154286 -26.322991 0.016917 -3.508837 -14.096985 8.493642 2.329570 21.653001 -7.610985 0.000000 0.000000 0.000000 0.000000 0.000000 0.000000 -1.281420 -0.151523 33.085436 0.554259 -2.023114 0.187379 15.690068 10.379217 -13.639872 0.000000 0.000000 0.000000 1.665561 0.054793 33.595924 -3.937357 1.512330 -0.856963 -2.684223 -1.438883 1.993242 0.000000 0.000000 0.000000
-45.166171 79.615763 304.818734 0.107948 -1.369577 -34.655515 0.637063 0.379014 34.692607 0.382233 -0.293995 0.081108 2.290961 5.379561 -1.114713 0.000000 0.000000 0.000000 -1.226553 1.716294 -0.111025 -1.323204 -1.778803 0.152640 1.328574 1.774796 -0.193762 -11.899724 -11.805655 -2.127064 0.000000 0.000000 0.000000 0.000000 0.000000 0.000000 -1.602503 15.467851 0.120618 0.333476 -26.258928 0.019541 -4.093142 -14.531781 8.863311 3.468698 22.933743 -8.215520 0.000000 0.000000 0.000000 0.000000 0.000000 0.000000 -2.126488 -0.281340 34.581915 0.793569 -2.038162 0.203466 16.591688 11.112987 -14.354554 0.000000 0.000000 0.000000 0.915127 0.290069 35.087676 -3.800391 1.623228 -0.860386 -2.739700 -2.206710 1.699703 0.000000 0.000000 0.000000
-45.060026 79.714277 305.037583 0.647841 -1.818299 -36.668000 0.769271 0.526655 36.738436 0.417505 -0.333215 0.121547 2.443729 6.747849 -1.490574 0.000000 0.000000 0.000000 -0.744434 3.071151 -0.641580 -1.849002 -2.941319 0.378487 0.627354 2.047119 0.001879 -9.453179 -11.260271 -2.213779 0.000000 0.000000 0.000000 0.000000 0.000000 0.000000 -2.210166 16.198928 0.062145 0.705819 -26.262554 -0.018268 -4.516378 -14.410868 8.982623 3.943871 24.123712 -8.274628 0.000000 0.000000 0.000000 0.000000 0.000000 0.000000 -3.088699 -0.520379 36.573156 1.103605 -1.996024 0.222914 16.447394 10.356882 -14.218333 0.000000 0.000000 0.000000 -0.078804 0.618665 37.051211 -3.582524 1.575232 -0.839558 -2.922578 -2.892348 1.478340 0.000000 0.000000 0.000000
-44.957304 79.851656 305.321404 1.284647 -2.341960 -39.165112 0.893841 0.713327 39.277361 0.429030 -0.359446 0.166010 2.736583 8.272215 -1.957114 0.000000 0.000000 0.000000 -0.893965 4.789629 -1.168501 -1.559440 -4.399320 0.554842 1.514422 3.548096 0.025270 -7.536630 -11.491643 -2.323622 0.000000 0.000000 0.000000 0.000000 0.000000 0.000000 -2.736523 17.176672 -0.012841 0.963017 -26.328422 -0.093291 -4.758652 -13.661827 8.820073 3.673132 25.178234 -7.726106 0.000000 0.000000 0.000000 0.000000 0.000000 0.000000 -4.150013 -0.902601 39.056462 1.480782 -1.896277 0.245339 15.231123 8.008438 -13.220023 0.000000 0.000000 0.000000 -1.330518 0.986745 39.488461 -3.281620 1.373945 -0.792092 -3.234884 -3.495338 1.327709 0.000000 0.000000 0.000000
-44.858003 80.027900 305.670199 2.017360 -2.939347 -42.135607 0.999884 0.941525 42.299600 0.418642 -0.373442 0.214528 3.167087 9.937533 -2.527384 0.000000 0.000000 0.000000 -0.993866 6.828218 -1.827794 -1.120275 -6.112607 0.811076 1.655468 4.952621 0.150968 -3.865596 -11.160210 -2.391449 0.000000 0.000000 0.000000 0.000000 0.000000 0.000000 -3.179855 18.394628 -0.111429 1.102662 -26.454339 -0.203466 -4.776182 -12.164481 8.321208 2.534258 25.989585 -6.502892 0.000000 0.000000 0.000000 0.000000 0.000000 0.000000 -5.285356 -1.464282 42.018315 1.922420 -1.738311 0.270456 12.870331 3.747263 -11.340306 0.000000 0.000000 0.000000 -2.852515 1.327303 42.389904 -2.895102 1.025804 -0.714294 -3.679189 -4.015617 1.246154 0.000000 0.000000 0.000000
